<?xml version="1.0" encoding="utf-8"?>
<!-- Generator: Adobe Illustrator 20.0.0, SVG Export Plug-In . SVG Version: 6.00 Build 0)  -->
<svg version="1.1" id="Calque_1" xmlns="http://www.w3.org/2000/svg" xmlns:xlink="http://www.w3.org/1999/xlink" x="0px" y="0px"
	 viewBox="0 0 100 100" style="enable-background:new 0 0 100 100;" xml:space="preserve">
	<path fill="#333333" d="M54.1,63.4l2.5-6.6L100,69.5v-3.1L56.5,53.7L52.3,50l5.3-4.6l7.4,2l6.1-4.3l9-13.7L100,47.5v-4.1L81.7,26.8
		l8.5-13L76.2,0h-4.3l14.4,14.2L68.9,40.9l-4.4,3.2l-7.6-2l-6.3,5.4l-4.5-10.9L52.7,0h-3l-6.2,34.2l-22-15.2l2-18.9h-3l-3.6,34.9
		l3.3,8.9L0,51.3v3.2l22.1-8.3l24.2,4.6l-2.7,2L26.5,66.1L0,81.7v3.5l23.1-13.6L29,100h3.1l-6.3-30l2.3-1.4l17.3-13.4l4.5-3.3
		l4.1,3.5l-3.1,8.1l10.5,21.1L54,100h3.3l6.5-13.6l36.2,9.8v-3.1l-36-9.7L54.1,63.4z M23.1,43.4l-3.3-8.9l1.3-12.1l22.2,15.4L47.5,48
		L23.1,43.4z"/>
</svg>
